<mxfile host="app.diagrams.net" modified="2024-01-07T13:38:01.640Z" agent="Mozilla/5.0 (Windows NT 10.0; Win64; x64) AppleWebKit/537.36 (KHTML, like Gecko) Chrome/120.0.0.0 Safari/537.36" etag="sWTbrrUFPYpKTEGEhvyK" version="22.1.17" type="device">
  <diagram name="第 1 页" id="oZHfy60B06Gg_I67x8Qi">
    <mxGraphModel dx="1034" dy="459" grid="1" gridSize="10" guides="1" tooltips="1" connect="1" arrows="1" fold="1" page="1" pageScale="1" pageWidth="827" pageHeight="1169" math="0" shadow="0">
      <root>
        <mxCell id="0" />
        <mxCell id="1" parent="0" />
        <mxCell id="KL-YzWmICsVjGZMYXzRP-44" style="edgeStyle=orthogonalEdgeStyle;rounded=0;orthogonalLoop=1;jettySize=auto;html=1;exitX=1;exitY=0.3333333333333333;exitDx=0;exitDy=0;exitPerimeter=0;entryX=0.5;entryY=1;entryDx=0;entryDy=0;" edge="1" parent="1" source="KL-YzWmICsVjGZMYXzRP-37" target="KL-YzWmICsVjGZMYXzRP-38">
          <mxGeometry relative="1" as="geometry" />
        </mxCell>
        <mxCell id="KL-YzWmICsVjGZMYXzRP-45" style="edgeStyle=orthogonalEdgeStyle;rounded=0;orthogonalLoop=1;jettySize=auto;html=1;exitX=0.5;exitY=0.5;exitDx=0;exitDy=0;exitPerimeter=0;entryX=0;entryY=0.5;entryDx=0;entryDy=0;" edge="1" parent="1" source="KL-YzWmICsVjGZMYXzRP-37" target="KL-YzWmICsVjGZMYXzRP-41">
          <mxGeometry relative="1" as="geometry" />
        </mxCell>
        <mxCell id="KL-YzWmICsVjGZMYXzRP-46" style="edgeStyle=orthogonalEdgeStyle;rounded=0;orthogonalLoop=1;jettySize=auto;html=1;exitX=1;exitY=1;exitDx=0;exitDy=0;exitPerimeter=0;entryX=0;entryY=0.5;entryDx=0;entryDy=0;" edge="1" parent="1" source="KL-YzWmICsVjGZMYXzRP-37" target="KL-YzWmICsVjGZMYXzRP-42">
          <mxGeometry relative="1" as="geometry" />
        </mxCell>
        <mxCell id="KL-YzWmICsVjGZMYXzRP-37" value="&lt;font style=&quot;vertical-align: inherit;&quot;&gt;&lt;font style=&quot;vertical-align: inherit;&quot;&gt;客戶&lt;/font&gt;&lt;/font&gt;" style="shape=umlActor;verticalLabelPosition=bottom;verticalAlign=top;html=1;outlineConnect=0;" vertex="1" parent="1">
          <mxGeometry x="110" y="270" width="30" height="60" as="geometry" />
        </mxCell>
        <mxCell id="KL-YzWmICsVjGZMYXzRP-38" value="&lt;font style=&quot;vertical-align: inherit;&quot;&gt;&lt;font style=&quot;vertical-align: inherit;&quot;&gt;評價&lt;/font&gt;&lt;/font&gt;" style="rounded=0;whiteSpace=wrap;html=1;" vertex="1" parent="1">
          <mxGeometry x="210" y="50" width="120" height="60" as="geometry" />
        </mxCell>
        <mxCell id="KL-YzWmICsVjGZMYXzRP-47" style="edgeStyle=orthogonalEdgeStyle;rounded=0;orthogonalLoop=1;jettySize=auto;html=1;exitX=0.25;exitY=0;exitDx=0;exitDy=0;" edge="1" parent="1" source="KL-YzWmICsVjGZMYXzRP-39" target="KL-YzWmICsVjGZMYXzRP-37">
          <mxGeometry relative="1" as="geometry" />
        </mxCell>
        <mxCell id="KL-YzWmICsVjGZMYXzRP-48" style="edgeStyle=orthogonalEdgeStyle;rounded=0;orthogonalLoop=1;jettySize=auto;html=1;exitX=1;exitY=0.5;exitDx=0;exitDy=0;entryX=0;entryY=0.5;entryDx=0;entryDy=0;" edge="1" parent="1" source="KL-YzWmICsVjGZMYXzRP-39" target="KL-YzWmICsVjGZMYXzRP-40">
          <mxGeometry relative="1" as="geometry" />
        </mxCell>
        <mxCell id="KL-YzWmICsVjGZMYXzRP-39" value="&lt;font style=&quot;vertical-align: inherit;&quot;&gt;&lt;font style=&quot;vertical-align: inherit;&quot;&gt;介面&lt;/font&gt;&lt;/font&gt;" style="rounded=0;whiteSpace=wrap;html=1;" vertex="1" parent="1">
          <mxGeometry x="100" y="410" width="120" height="60" as="geometry" />
        </mxCell>
        <mxCell id="KL-YzWmICsVjGZMYXzRP-49" style="edgeStyle=orthogonalEdgeStyle;rounded=0;orthogonalLoop=1;jettySize=auto;html=1;exitX=1;exitY=0.5;exitDx=0;exitDy=0;" edge="1" parent="1" source="KL-YzWmICsVjGZMYXzRP-40" target="KL-YzWmICsVjGZMYXzRP-43">
          <mxGeometry relative="1" as="geometry" />
        </mxCell>
        <mxCell id="KL-YzWmICsVjGZMYXzRP-40" value="&lt;font style=&quot;vertical-align: inherit;&quot;&gt;&lt;font style=&quot;vertical-align: inherit;&quot;&gt;網站&lt;/font&gt;&lt;/font&gt;" style="rounded=0;whiteSpace=wrap;html=1;" vertex="1" parent="1">
          <mxGeometry x="360" y="410" width="120" height="60" as="geometry" />
        </mxCell>
        <mxCell id="KL-YzWmICsVjGZMYXzRP-41" value="&lt;font style=&quot;vertical-align: inherit;&quot;&gt;&lt;font style=&quot;vertical-align: inherit;&quot;&gt;登入數據&lt;/font&gt;&lt;/font&gt;" style="rounded=0;whiteSpace=wrap;html=1;" vertex="1" parent="1">
          <mxGeometry x="480" y="70" width="120" height="60" as="geometry" />
        </mxCell>
        <mxCell id="KL-YzWmICsVjGZMYXzRP-50" style="edgeStyle=orthogonalEdgeStyle;rounded=0;orthogonalLoop=1;jettySize=auto;html=1;exitX=0;exitY=0.75;exitDx=0;exitDy=0;" edge="1" parent="1" source="KL-YzWmICsVjGZMYXzRP-42" target="KL-YzWmICsVjGZMYXzRP-40">
          <mxGeometry relative="1" as="geometry" />
        </mxCell>
        <mxCell id="KL-YzWmICsVjGZMYXzRP-52" style="edgeStyle=orthogonalEdgeStyle;rounded=0;orthogonalLoop=1;jettySize=auto;html=1;exitX=0.5;exitY=1;exitDx=0;exitDy=0;" edge="1" parent="1" source="KL-YzWmICsVjGZMYXzRP-42" target="KL-YzWmICsVjGZMYXzRP-39">
          <mxGeometry relative="1" as="geometry" />
        </mxCell>
        <mxCell id="KL-YzWmICsVjGZMYXzRP-42" value="&lt;font style=&quot;vertical-align: inherit;&quot;&gt;&lt;font style=&quot;vertical-align: inherit;&quot;&gt;數據庫&lt;/font&gt;&lt;/font&gt;" style="rounded=0;whiteSpace=wrap;html=1;" vertex="1" parent="1">
          <mxGeometry x="650" y="210" width="120" height="60" as="geometry" />
        </mxCell>
        <mxCell id="KL-YzWmICsVjGZMYXzRP-43" value="&lt;font style=&quot;vertical-align: inherit;&quot;&gt;&lt;font style=&quot;vertical-align: inherit;&quot;&gt;&lt;font style=&quot;vertical-align: inherit;&quot;&gt;&lt;font style=&quot;vertical-align: inherit;&quot;&gt;顯示頁面&lt;/font&gt;&lt;/font&gt;&lt;/font&gt;&lt;/font&gt;" style="rounded=0;whiteSpace=wrap;html=1;" vertex="1" parent="1">
          <mxGeometry x="641" y="420" width="120" height="60" as="geometry" />
        </mxCell>
      </root>
    </mxGraphModel>
  </diagram>
</mxfile>
